<?xml version="1.0" standalone="no"?>
<!DOCTYPE svg PUBLIC "-//W3C//DTD SVG 20010904//EN"
 "http://www.w3.org/TR/2001/REC-SVG-20010904/DTD/svg10.dtd">
<svg version="1.0" xmlns="http://www.w3.org/2000/svg"
 width="512.000000pt" height="512.000000pt" viewBox="0 0 512.000000 512.000000"
 preserveAspectRatio="xMidYMid meet">
<metadata>
Created by potrace 1.11, written by Peter Selinger 2001-2013
</metadata>
<g transform="translate(0.000000,512.000000) scale(0.100000,-0.100000)"
fill="#000000" stroke="none">
<path d="M0 4960 l0 -160 40 0 c27 0 40 4 40 14 0 7 10 21 23 29 l22 16 -22 0
c-31 1 -29 21 1 21 14 0 28 5 31 10 3 6 46 10 96 10 82 0 89 -2 89 -20 0 -20
0 -20 35 0 42 24 45 24 45 6 0 -21 42 -7 77 26 46 44 53 56 53 93 0 24 4 35
15 35 8 0 15 -5 15 -11 0 -5 5 -7 11 -3 8 5 8 8 0 14 -9 5 -8 10 4 20 8 7 15
23 15 36 l0 24 -295 0 -295 0 0 -160z"/>
<path d="M4570 5103 c0 -35 21 -93 33 -93 19 0 37 21 37 42 0 25 23 22 35 -4
8 -19 19 -24 63 -26 43 -3 52 0 52 14 0 15 9 16 82 11 46 -4 84 -11 86 -17 2
-6 38 -10 83 -10 l79 0 0 50 0 50 -200 0 c-171 0 -200 -2 -200 -15 0 -8 -7
-15 -15 -15 -8 0 -15 7 -15 15 0 12 -13 15 -60 15 -50 0 -60 -3 -60 -17z m303
-40 c-13 -2 -33 -2 -45 0 -13 2 -3 4 22 4 25 0 35 -2 23 -4z"/>
<path d="M5080 4940 c6 -11 17 -20 25 -20 8 0 15 9 15 20 0 15 -7 20 -25 20
-23 0 -24 -2 -15 -20z"/>
<path d="M371 3181 c-12 -8 -13 -120 -7 -732 4 -397 9 -726 12 -731 7 -12 162
-10 184 2 19 10 19 30 20 555 0 299 3 551 6 559 11 29 23 16 30 -31 3 -27 12
-61 19 -78 8 -16 17 -46 21 -65 3 -19 12 -44 19 -55 7 -11 16 -37 19 -57 4
-20 13 -50 21 -65 8 -15 15 -34 15 -41 0 -6 15 -51 33 -100 41 -107 77 -217
77 -232 0 -7 6 -26 14 -43 8 -18 26 -72 41 -122 15 -49 33 -107 41 -128 8 -20
14 -48 14 -62 0 -36 29 -46 127 -43 86 3 88 3 102 33 8 17 20 53 27 80 14 55
27 96 55 165 17 43 44 117 69 190 6 19 18 58 25 85 22 78 43 146 59 190 8 22
15 49 16 61 0 11 7 29 15 40 8 10 15 28 15 39 1 11 8 38 16 60 9 22 19 56 24
75 4 19 13 49 19 65 6 17 16 50 22 75 10 37 13 42 20 25 4 -11 8 -279 8 -596
1 -516 3 -577 17 -583 23 -9 157 -7 172 2 10 7 12 160 10 733 l-3 724 -150 0
-149 0 -8 -39 c-5 -22 -12 -44 -17 -50 -5 -6 -13 -29 -17 -51 -4 -22 -13 -49
-20 -60 -8 -11 -14 -29 -14 -41 0 -12 -9 -41 -20 -65 -11 -24 -20 -55 -20 -69
0 -14 -6 -37 -14 -52 -8 -15 -17 -42 -21 -60 -3 -18 -12 -46 -20 -63 -8 -16
-24 -57 -36 -90 -12 -33 -27 -76 -34 -95 -8 -19 -23 -69 -35 -110 -12 -41 -26
-88 -32 -105 -12 -38 -36 -116 -54 -180 -23 -83 -23 -82 -49 -39 -13 21 -24
46 -24 54 -1 12 -54 190 -92 305 -14 40 -37 117 -56 185 -8 30 -19 60 -23 65
-5 6 -11 28 -15 50 -4 22 -11 45 -16 50 -4 6 -13 33 -19 60 -6 28 -17 64 -25
80 -28 60 -95 266 -95 292 0 6 -10 19 -22 27 -18 13 -51 16 -153 16 -71 0
-136 -4 -144 -9z"/>
<path d="M3627 3183 l-77 -4 2 -732 3 -732 76 -3 c42 -1 87 2 101 7 l25 9 1
333 c1 183 5 336 10 341 5 5 168 7 363 6 l354 -3 3 -334 c1 -226 6 -339 13
-348 15 -17 160 -18 177 -1 9 9 12 186 12 734 0 649 -2 722 -16 728 -23 9
-157 7 -171 -2 -10 -6 -13 -83 -15 -307 l-3 -300 -358 -3 -357 -2 -8 22 c-5
13 -7 148 -6 301 l2 278 -25 10 c-13 5 -25 8 -26 7 -1 -1 -37 -4 -80 -5z"/>
<path d="M2087 3174 c-9 -9 -9 -1426 -1 -1448 5 -13 23 -16 88 -16 50 0 87 5
94 12 9 9 12 99 12 344 0 293 2 333 16 338 20 8 688 8 708 0 14 -5 16 -45 16
-339 0 -273 3 -335 14 -344 9 -8 45 -11 98 -9 l83 3 0 730 0 730 -75 3 c-41 2
-85 0 -97 -3 l-23 -5 -2 -298 -3 -297 -225 -5 c-124 -3 -288 -3 -365 0 l-140
5 -5 300 -5 300 -90 3 c-50 1 -94 0 -98 -4z"/>
<path d="M2698 401 c-14 -12 -33 -21 -41 -21 -19 0 -37 -51 -37 -103 0 -23 -7
-48 -16 -58 -12 -13 -14 -28 -9 -58 8 -47 17 -55 51 -47 16 4 30 19 40 41 8
19 18 35 23 35 5 0 12 11 15 25 4 14 14 25 23 25 8 0 24 10 34 22 19 21 19 22
-11 51 -35 34 -38 47 -10 47 11 0 20 5 20 10 0 6 -5 10 -11 10 -6 0 -18 9 -28
21 l-16 20 -27 -20z"/>
<path d="M533 365 c-18 -8 -66 -43 -107 -79 -69 -60 -79 -65 -113 -62 -21 2
-46 7 -55 11 -24 10 -103 -30 -156 -77 -23 -21 -56 -41 -72 -45 -29 -5 -30 -8
-30 -59 l0 -54 1221 0 1220 0 -3 32 c-3 28 -8 34 -42 43 -50 14 -63 40 -17 33
34 -5 47 4 34 25 -4 6 -6 19 -5 29 4 25 -57 36 -75 13 -9 -14 -10 -22 -2 -32
22 -25 -16 -24 -87 2 -38 15 -103 38 -144 51 -41 13 -84 29 -95 34 -11 6 -40
14 -65 19 -25 4 -49 9 -55 11 -22 5 -35 -1 -64 -32 -28 -30 -31 -31 -58 -18
-15 8 -35 20 -43 27 -9 6 -34 15 -57 19 -37 6 -44 3 -79 -28 -36 -32 -42 -34
-74 -25 -74 19 -130 20 -151 1 -10 -9 -29 -22 -42 -29 -12 -6 -21 -16 -20 -22
3 -17 -73 -36 -122 -31 -52 6 -82 29 -87 65 -2 19 -13 29 -43 40 -67 25 -82
26 -109 8 -25 -17 -29 -17 -69 1 -23 10 -49 23 -57 29 -8 7 -36 19 -61 27 -25
9 -67 32 -93 52 -51 39 -74 43 -123 21z m459 -186 l20 -11 -21 -14 c-17 -12
-24 -12 -41 -2 -25 16 -25 25 -2 31 9 3 18 5 20 6 2 0 12 -4 24 -10z m537 -86
c1 -10 -5 -10 -24 -1 -19 9 -28 9 -37 0 -14 -14 -97 -16 -118 -2 -29 19 10 31
83 26 57 -4 69 -2 74 11 6 14 7 14 14 -3 4 -10 8 -25 8 -31z m239 17 c25 0
-15 -30 -40 -30 -13 0 -29 -5 -36 -12 -9 -9 -12 -9 -12 2 0 11 -2 11 -12 -1
-7 -9 -32 -22 -56 -29 -37 -12 -45 -12 -59 2 -8 9 -12 21 -9 27 9 13 45 14 65
2 21 -14 41 -2 41 24 0 29 13 34 65 24 22 -5 46 -8 53 -9z m136 4 c13 -5 14
-9 5 -20 -18 -22 -119 -17 -119 6 0 15 85 25 114 14z"/>
<path d="M2820 350 c0 -5 5 -10 10 -10 6 0 10 5 10 10 0 6 -4 10 -10 10 -5 0
-10 -4 -10 -10z"/>
<path d="M2500 330 c0 -5 -7 -10 -15 -10 -8 0 -15 -3 -15 -7 0 -5 -14 -16 -30
-25 -17 -9 -30 -22 -30 -28 0 -14 30 -25 39 -14 3 5 18 15 34 21 15 7 27 19
27 27 0 8 3 21 6 30 3 9 1 16 -5 16 -6 0 -11 -4 -11 -10z"/>
<path d="M2916 265 c-3 -8 -15 -15 -27 -15 -12 0 -19 -5 -16 -12 2 -7 -3 -18
-12 -25 -14 -11 -14 -12 1 -13 10 0 23 -9 30 -20 13 -20 33 -26 41 -12 2 4 1
0 -1 -8 -3 -8 -6 -31 -6 -50 -1 -30 4 -37 36 -55 22 -11 38 -28 38 -37 0 -15
10 -18 61 -18 68 0 70 10 4 36 -58 22 -64 54 -18 100 26 26 26 27 8 40 -10 8
-25 14 -32 14 -8 0 -13 13 -13 35 0 24 -6 37 -19 45 -29 15 -68 12 -75 -5z"/>
<path d="M4600 196 c-18 -10 -73 -15 -185 -18 -131 -3 -165 -7 -185 -21 -34
-24 -84 -21 -133 7 -72 41 -91 41 -135 2 -25 -23 -53 -38 -79 -42 -49 -8 -107
-52 -121 -94 l-11 -30 685 0 684 0 0 50 0 50 -91 0 -90 0 -87 52 c-79 47 -93
52 -157 55 -47 2 -78 -1 -95 -11z"/>
<path d="M3422 189 c-13 -5 -43 -11 -66 -13 -52 -4 -67 -12 -59 -32 8 -20 84
-56 97 -45 6 4 21 11 33 14 18 4 26 -2 43 -38 11 -23 18 -49 15 -58 -6 -13 8
-15 94 -16 64 -1 101 2 101 9 0 13 -61 69 -76 70 -16 0 -54 44 -54 63 0 20
-56 57 -85 56 -11 0 -30 -4 -43 -10z"/>
<path d="M2520 46 c0 -46 0 -46 35 -46 19 0 35 5 35 10 0 9 -14 14 -32 11 -3
0 -9 13 -13 29 -11 48 -25 45 -25 -4z"/>
</g>
</svg>
